REM DIRINDEX 1\2,1\3,1\4,1\6,1\5\7,1\5\8
REM DIRNAME cjc114,folder01,folder02,folder03,folder04,folder05,folder06,folder07
TITLE ""
FILE "DB4500_5th_3B_17.mp3" MP3
  TRACK 01 AUDIO
    TITLE "0:"
    INDEX 01 00:00:00
  TRACK 02 AUDIO
    TITLE "2:cjc114_2221"
    INDEX 01 00:00:03
  TRACK 03 AUDIO
    TITLE "0:"
    INDEX 01 00:01:11
  TRACK 04 AUDIO
    TITLE "3:cjc114_2222"
    INDEX 01 00:01:36
  TRACK 05 AUDIO
    TITLE "0:"
    INDEX 01 00:02:47
  TRACK 06 AUDIO
    TITLE "4:cjc114_2223"
    INDEX 01 00:03:02
  TRACK 07 AUDIO
    TITLE "0:"
    INDEX 01 00:05:36
  TRACK 08 AUDIO
    TITLE "2:cjc114_2224"
    INDEX 01 00:06:14
  TRACK 09 AUDIO
    TITLE "0:"
    INDEX 01 00:07:21
  TRACK 10 AUDIO
    TITLE "3:cjc114_2225"
    INDEX 01 00:07:51
  TRACK 11 AUDIO
    TITLE "0:"
    INDEX 01 00:09:02
  TRACK 12 AUDIO
    TITLE "4:cjc114_2226"
    INDEX 01 00:09:30
  TRACK 13 AUDIO
    TITLE "0:"
    INDEX 01 00:12:05
  TRACK 14 AUDIO
    TITLE "2:cjc114_2227"
    INDEX 01 00:12:60
  TRACK 15 AUDIO
    TITLE "0:"
    INDEX 01 00:14:00
  TRACK 16 AUDIO
    TITLE "3:cjc114_2228"
    INDEX 01 00:14:27
  TRACK 17 AUDIO
    TITLE "0:"
    INDEX 01 00:15:66
  TRACK 18 AUDIO
    TITLE "4:cjc114_2229"
    INDEX 01 00:16:18
  TRACK 19 AUDIO
    TITLE "0:"
    INDEX 01 00:19:63
  TRACK 20 AUDIO
    TITLE "2:cjc114_2230"
    INDEX 01 00:20:37
  TRACK 21 AUDIO
    TITLE "0:"
    INDEX 01 00:21:62
  TRACK 22 AUDIO
    TITLE "3:cjc114_2231"
    INDEX 01 00:22:17
  TRACK 23 AUDIO
    TITLE "0:"
    INDEX 01 00:23:24
  TRACK 24 AUDIO
    TITLE "4:cjc114_2232"
    INDEX 01 00:23:53
  TRACK 25 AUDIO
    TITLE "0:"
    INDEX 01 00:26:26
  TRACK 26 AUDIO
    TITLE "2:cjc114_2233"
    INDEX 01 00:27:04
  TRACK 27 AUDIO
    TITLE "0:"
    INDEX 01 00:28:15
  TRACK 28 AUDIO
    TITLE "3:cjc114_2234"
    INDEX 01 00:28:45
  TRACK 29 AUDIO
    TITLE "0:"
    INDEX 01 00:30:03
  TRACK 30 AUDIO
    TITLE "4:cjc114_2235"
    INDEX 01 00:30:32
  TRACK 31 AUDIO
    TITLE "0:"
    INDEX 01 00:34:53
  TRACK 32 AUDIO
    TITLE "2:cjc114_2236"
    INDEX 01 00:35:29
  TRACK 33 AUDIO
    TITLE "0:"
    INDEX 01 00:36:52
  TRACK 34 AUDIO
    TITLE "3:cjc114_2237"
    INDEX 01 00:37:07
  TRACK 35 AUDIO
    TITLE "0:"
    INDEX 01 00:38:24
  TRACK 36 AUDIO
    TITLE "4:cjc114_2238"
    INDEX 01 00:38:51
  TRACK 37 AUDIO
    TITLE "0:"
    INDEX 01 00:42:23
  TRACK 38 AUDIO
    TITLE "2:cjc114_2239"
    INDEX 01 00:43:03
  TRACK 39 AUDIO
    TITLE "0:"
    INDEX 01 00:44:18
  TRACK 40 AUDIO
    TITLE "3:cjc114_2240"
    INDEX 01 00:44:48
  TRACK 41 AUDIO
    TITLE "0:"
    INDEX 01 00:45:55
  TRACK 42 AUDIO
    TITLE "4:cjc114_2241"
    INDEX 01 00:46:07
  TRACK 43 AUDIO
    TITLE "0:"
    INDEX 01 00:49:23
  TRACK 44 AUDIO
    TITLE "2:cjc114_2242"
    INDEX 01 00:50:11
  TRACK 45 AUDIO
    TITLE "0:"
    INDEX 01 00:51:24
  TRACK 46 AUDIO
    TITLE "3:cjc114_2243"
    INDEX 01 00:51:50
  TRACK 47 AUDIO
    TITLE "0:"
    INDEX 01 00:53:02
  TRACK 48 AUDIO
    TITLE "4:cjc114_2244"
    INDEX 01 00:53:31
  TRACK 49 AUDIO
    TITLE "0:"
    INDEX 01 00:56:31
  TRACK 50 AUDIO
    TITLE "2:cjc114_2245"
    INDEX 01 00:57:07
  TRACK 51 AUDIO
    TITLE "0:"
    INDEX 01 00:58:24
  TRACK 52 AUDIO
    TITLE "3:cjc114_2246"
    INDEX 01 00:58:54
  TRACK 53 AUDIO
    TITLE "0:"
    INDEX 01 00:59:71
  TRACK 54 AUDIO
    TITLE "4:cjc114_2247"
    INDEX 01 01:00:25
  TRACK 55 AUDIO
    TITLE "0:"
    INDEX 01 01:03:55
  TRACK 56 AUDIO
    TITLE "2:cjc114_2248"
    INDEX 01 01:04:33
  TRACK 57 AUDIO
    TITLE "0:"
    INDEX 01 01:05:58
  TRACK 58 AUDIO
    TITLE "3:cjc114_2249"
    INDEX 01 01:06:10
  TRACK 59 AUDIO
    TITLE "0:"
    INDEX 01 01:07:37
  TRACK 60 AUDIO
    TITLE "4:cjc114_2250"
    INDEX 01 01:07:66
  TRACK 61 AUDIO
    TITLE "0:"
    INDEX 01 01:11:51
